<?xml version="1.0" encoding="UTF-8"?>
<svg version="1.1" xmlns="http://www.w3.org/2000/svg" width="1024" height="1024" viewBox="0 0 1024 1024">
<path d="M0 0 C25.25268031 19.3651172 35.55482949 49.25091146 39.81567383 79.8293457 C40.93394954 88.84270217 40.93832027 97.86796006 40.875 106.9375 C40.87129395 107.89572662 40.86758789 108.85395325 40.86376953 109.84121704 C40.6678134 145.56275801 33.96886855 181.23231672 10.4375 209.3125 C9.88835937 209.97507812 9.33921875 210.63765625 8.7734375 211.3203125 C0.81071394 220.06754084 -10.26851736 225.37274275 -21.5625 228.3125 C-22.65884766 228.60060547 -22.65884766 228.60060547 -23.77734375 228.89453125 C-41.28288632 231.52159023 -57.64839215 228.99260019 -72.5625 219.3125 C-76.14739175 216.5338286 -79.37658691 213.53686376 -82.5625 210.3125 C-83.24828125 209.64863281 -83.9340625 208.98476563 -84.640625 208.30078125 C-110.6913902 181.37823848 -114.37507811 137.32870147 -113.95466614 102.03129578 C-113.42857603 73.08191165 -106.67325882 42.2155991 -89.5625 18.3125 C-88.95792969 17.46171875 -88.35335937 16.6109375 -87.73046875 15.734375 C-67.18826332 -11.54366561 -28.69358456 -20.02987066 0 0 Z " fill="#FEFEFE" transform="translate(296.5625,466.6875)"/>
<path d="M0 0 C0.71768555 0.19335938 1.43537109 0.38671875 2.17480469 0.5859375 C21.91170271 6.12491971 39.9245725 15.93280796 54 31 C54.825 31.804375 55.65 32.60875 56.5 33.4375 C70.95650964 48.25542238 80.71390652 67.01025332 86 87 C86.22993652 87.86383301 86.45987305 88.72766602 86.69677734 89.61767578 C97.20343933 131.21039928 93.77544893 182.33540119 71.625 219.6875 C68.11412409 225.4398964 64.40729105 230.88789925 60 236 C58.76636719 237.43279297 58.76636719 237.43279297 57.5078125 238.89453125 C37.34066371 261.82594521 9.42129949 276.11377269 -21 279 C-53.19179276 281.02593682 -84.9773177 273.07497893 -110 252 C-136.65432148 228.40829355 -152.22037423 195.06059419 -154.87548828 159.46679688 C-157.02241517 116.93238657 -151.9314496 72.94982824 -124 39 C-123.08927734 37.87851562 -123.08927734 37.87851562 -122.16015625 36.734375 C-103.46500367 14.52063361 -76.01439723 0.61811242 -47.39257812 -2.79931641 C-31.73005338 -4.11305062 -15.2499733 -4.12040394 0 0 Z M-81.9609375 41.37109375 C-83.76269042 43.85359947 -85.39553197 46.38572691 -87 49 C-87.64582031 50.01449219 -88.29164063 51.02898437 -88.95703125 52.07421875 C-96.65157501 64.74152693 -101.32626735 78.38819433 -104.8125 92.75 C-105.10483521 93.95281616 -105.10483521 93.95281616 -105.40307617 95.17993164 C-108.54435036 108.95640559 -109.37651749 122.49812107 -109.3125 136.5625 C-109.31067719 137.39560699 -109.30885437 138.22871399 -109.30697632 139.08706665 C-109.18063946 173.45851185 -102.8591922 213.09344325 -77.53515625 238.5234375 C-76.28025391 239.74933594 -76.28025391 239.74933594 -75 241 C-74.16275391 241.88558594 -74.16275391 241.88558594 -73.30859375 242.7890625 C-69.48460703 246.52319053 -64.83894911 248.82881083 -60.125 251.25 C-59.13463745 251.76288574 -59.13463745 251.76288574 -58.12426758 252.28613281 C-44.88445137 258.79810322 -26.84862373 259.42126792 -12.81640625 255.08984375 C9.03568763 246.63390173 22.15946944 231.47664517 31.87646484 210.43579102 C35.80435368 201.51830269 38.77150228 192.48271311 41 183 C41.21027832 182.10684082 41.42055664 181.21368164 41.63720703 180.29345703 C44.98519069 165.14933142 45.38840366 150.06661186 45.4375 134.625 C45.44376404 133.70227295 45.45002808 132.7795459 45.45648193 131.82885742 C45.5284883 115.05025393 44.14595226 98.38170781 39.25 82.25 C38.99395996 81.38640869 38.73791992 80.52281738 38.47412109 79.63305664 C32.30396632 59.48800338 22.11923343 40.94666401 5 28 C4.16662109 27.35804688 4.16662109 27.35804688 3.31640625 26.703125 C-24.24148453 7.50149788 -61.59027751 16.73963834 -81.9609375 41.37109375 Z " fill="#7D57D5" transform="translate(292,439)"/>
<path d="M0 0 C1.16789063 0.45052734 1.16789063 0.45052734 2.359375 0.91015625 C4.54461575 1.77778863 4.54461575 1.77778863 6.546875 2.22265625 C8.5868469 0.85941882 8.5868469 0.85941882 10.546875 -0.77734375 C13.60602095 -0.76129928 16.53518037 -0.27468439 19.546875 0.22265625 C19.80002756 11.24299653 19.08055899 22.10710246 18.26431274 33.08901978 C17.00392286 50.16646247 16.08198707 67.09067506 16.546875 84.22265625 C17.866875 84.22265625 19.186875 84.22265625 20.546875 84.22265625 C27.06692912 76.36023805 26.7893761 68.12922113 26.921875 58.41015625 C27.38774542 40.54258486 29.51593702 19.79780973 42.546875 6.22265625 C48.67241012 0.9901898 52.53778451 -1.1101366 60.63671875 -1.078125 C64.98424954 -0.62878289 67.82964629 0.97829175 71.546875 3.22265625 C71.546875 2.56265625 71.546875 1.90265625 71.546875 1.22265625 C75.22803037 -1.23144733 77.19981098 -1.01022218 81.546875 -0.77734375 C82.536875 -0.44734375 83.526875 -0.11734375 84.546875 0.22265625 C83.9315192 20.25173723 82.83631439 40.22789955 81.546875 60.22265625 C86.7081736 53.67669322 88.54904826 48.23305469 89.546875 40.03515625 C91.703834 25.60905573 95.80057909 11.99501881 107.70703125 2.5 C113.13752147 -0.93835271 118.21491525 -1.8616535 124.546875 -0.77734375 C130.77548383 1.10340847 135.03456374 4.81986585 138.546875 10.22265625 C142.91440968 18.43749295 145.77238247 26.32854083 145.8828125 35.7109375 C145.89119141 36.40743408 145.89957031 37.10393066 145.90820312 37.8215332 C145.92763461 40.05964153 145.92780506 42.29697809 145.921875 44.53515625 C145.92133118 45.2979892 145.92078735 46.06082214 145.92022705 46.84677124 C145.85911947 65.42860976 144.03965479 85.57082218 130.3046875 99.6328125 C124.09726249 105.24708356 119.26647119 105.99597142 110.9296875 105.73046875 C104.93325619 104.83031162 101.77198392 102.02953219 98.09765625 97.39453125 C93.05521028 89.9444309 89.36539696 81.01498765 89.484375 71.97265625 C89.49339844 71.080625 89.50242187 70.18859375 89.51171875 69.26953125 C89.52332031 68.5940625 89.53492188 67.91859375 89.546875 67.22265625 C88.886875 67.22265625 88.226875 67.22265625 87.546875 67.22265625 C87.32 67.90328125 87.093125 68.58390625 86.859375 69.28515625 C85.546875 72.22265625 85.546875 72.22265625 83.04296875 75.20703125 C79.62983637 79.93228909 79.57703608 84.73394771 79.296875 90.41015625 C79.18931885 92.00355835 79.18931885 92.00355835 79.07958984 93.62915039 C78.76028966 98.53793197 78.52809783 103.44745137 78.3515625 108.36328125 C78.00894903 117.76000124 77.17908686 126.92309979 75.734375 136.22265625 C75.5811377 137.23706787 75.42790039 138.25147949 75.27001953 139.29663086 C72.08776948 158.59986318 72.08776948 158.59986318 65.609375 165.34765625 C64.96097656 166.05148437 64.31257812 166.7553125 63.64453125 167.48046875 C60.70542536 169.92151387 58.09138316 171.11951273 54.265625 171.375 C50.09282759 170.97094391 48.02548332 170.60762382 44.671875 167.91015625 C43.62 166.57984375 43.62 166.57984375 42.546875 165.22265625 C42.04285156 164.60132813 41.53882813 163.98 41.01953125 163.33984375 C34.88600258 154.52187946 35.56628601 141.48778127 36.546875 131.22265625 C38.35060394 121.88399512 42.28058771 113.12208718 47.546875 105.22265625 C46.86625 105.18140625 46.185625 105.14015625 45.484375 105.09765625 C38.13091935 102.9072652 34.08928509 96.65449761 30.546875 90.22265625 C30.24394531 90.81433594 29.94101562 91.40601563 29.62890625 92.015625 C24.09848432 102.44685159 24.09848432 102.44685159 18.546875 105.22265625 C13.66297776 105.90640186 10.43810281 105.76729547 6.171875 103.16015625 C3.22306268 99.86029485 2.00550784 97.35544931 0.546875 93.22265625 C-0.03320312 94.14498047 -0.03320312 94.14498047 -0.625 95.0859375 C-1.14578125 95.89417969 -1.6665625 96.70242188 -2.203125 97.53515625 C-2.96882812 98.73591797 -2.96882812 98.73591797 -3.75 99.9609375 C-5.98417125 102.92787592 -7.98785182 104.77034457 -11.56640625 105.875 C-16.49079213 106.51350829 -19.7404384 106.345451 -23.8984375 103.5 C-32.58470943 96.36328914 -35.99165785 85.05100929 -37.453125 74.22265625 C-37.74617385 69.656416 -37.78694997 65.10982584 -37.765625 60.53515625 C-37.75825317 58.67286377 -37.75825317 58.67286377 -37.75073242 56.77294922 C-37.63721947 47.88866901 -37.01864869 39.77440188 -34.453125 31.22265625 C-34.10121094 30.02898438 -33.74929688 28.8353125 -33.38671875 27.60546875 C-29.52092817 15.74017093 -24.73299694 6.24165105 -13.453125 0.22265625 C-9.37381176 -1.81700037 -4.26131928 -1.35032251 0 0 Z " fill="#5D1D8A" transform="translate(603.453125,524.77734375)"/>
<path d="M0 0 C0.7321875 0.43957031 1.464375 0.87914062 2.21875 1.33203125 C17.08304107 11.38578977 22.45968264 30.12101008 25.74536133 46.75830078 C29.2450359 65.44936275 29.48025287 85.29364082 26 104 C25.79375 105.21171875 25.5875 106.4234375 25.375 107.671875 C22.26173368 124.72408373 17.30992057 146.71988776 2.73046875 157.7109375 C-5.31789477 163.24987588 -12.39326582 163.79055417 -22 163 C-24.91047639 161.93022669 -27.28975176 160.53410278 -30 159 C-32.08405382 159.72415836 -32.08405382 159.72415836 -34 161 C-37.50093714 163.10056229 -39.43849723 164.00985093 -43.5625 163.9375 C-47.50537431 162.86217064 -49.22395716 162.0011274 -52 159 C-57.79203573 148.39101872 -59.07618413 135.0749515 -55.8828125 123.3359375 C-51.89000958 112.7709103 -46.42973025 103.0756174 -38.125 95.3125 C-34.49348934 91.36056193 -34.86419223 86.08753477 -34.51928711 80.90283203 C-34.43927963 79.72206085 -34.35927216 78.54128967 -34.27684021 77.32473755 C-34.19450638 76.06515228 -34.11217255 74.80556702 -34.02734375 73.5078125 C-33.8962899 71.55619705 -33.8962899 71.55619705 -33.7625885 69.56515503 C-33.5314689 66.12289196 -33.30389841 62.68040329 -33.0770874 59.237854 C-32.84456661 55.71832084 -32.60866076 52.19901471 -32.37304688 48.6796875 C-31.91206716 41.78667576 -31.45483963 34.89341955 -31 28 C-25.21642935 25.98832325 -20.09781001 25.77915376 -14 26 C-15.35769327 47.59539631 -16.84156828 69.17990997 -18.39685059 90.76190186 C-18.67618085 94.64134025 -18.95424608 98.52086931 -19.23242188 102.40039062 C-19.64068533 108.09257782 -20.04962298 113.78471586 -20.45922852 119.47680664 C-20.97534636 126.65102481 -21.48828901 133.82546619 -22 141 C-14.63124792 141.46053555 -14.63124792 141.46053555 -7.625 139.5 C7.22520962 125.35694322 8.6332453 99.25188099 9.23828125 79.94140625 C9.57427623 60.39896521 9.14870095 36.62564969 -5.234375 21.5546875 C-10.27896098 17.11277329 -16.09764892 15.5656527 -22.7109375 15.65234375 C-28.27642162 16.49761352 -33.22717214 19.41378559 -37.375 23.125 C-42.13512779 31.54676455 -44.97940959 40.55046527 -42.421875 50.17578125 C-41.10075087 53.56994591 -40.07252429 54.95165047 -37 57 C-36.671875 59.4609375 -36.671875 59.4609375 -36.75 62.375 C-36.76546875 63.33148437 -36.7809375 64.28796875 -36.796875 65.2734375 C-36.97399477 67.65092983 -37.33011407 69.72022692 -38 72 C-42.3520067 71.68914238 -45.3258065 70.67752408 -48.61328125 67.7265625 C-56.33678744 58.11025338 -55.67824958 44.57400092 -55 33 C-53.31765331 20.90564941 -48.09041929 10.23007603 -39 2 C-28.07170302 -5.53117835 -11.47433128 -7.58125459 0 0 Z " fill="#5D1D8A" transform="translate(486,467)"/>
<path d="M0 0 C0.99 0.495 0.99 0.495 2 1 C1.38253906 1.46148437 0.76507813 1.92296875 0.12890625 2.3984375 C-10.69490358 10.73458328 -18.37950771 20.06813392 -25 32 C-25.33918457 32.60585938 -25.67836914 33.21171875 -26.02783203 33.8359375 C-31.88122335 44.44744522 -35.76442011 55.34279052 -39 67 C-39.30679688 68.08410156 -39.61359375 69.16820312 -39.9296875 70.28515625 C-40.75418998 73.51091596 -41.40618849 76.72343292 -42 80 C-42.13535156 80.73976074 -42.27070313 81.47952148 -42.41015625 82.24169922 C-49.43018356 122.28273339 -46.6939597 168.45997078 -28 205 C-27.68949707 205.60730957 -27.37899414 206.21461914 -27.05908203 206.84033203 C-21.11512158 218.28449356 -13.81071952 227.9988179 -3.9453125 236.34375 C-2.20506174 237.82540928 -0.58994866 239.36005296 1 241 C-15.61186214 238.71084209 -33.04787858 221.72502591 -43 209 C-66.65157381 177.22670672 -71.78881686 135.73873897 -66.87280273 97.27099609 C-62.62515419 68.29365854 -53.2244077 44.48150068 -33 23 C-32.44957031 22.38511719 -31.89914063 21.77023437 -31.33203125 21.13671875 C-23.03618429 12.22636461 -11.17835378 4.83662508 0 0 Z " fill="#D6D6FB" transform="translate(217,456)"/>
<path d="M0 0 C11.78627477 3.54836411 21.95721006 10.83276007 31 19 C31.84175781 19.75925781 32.68351562 20.51851563 33.55078125 21.30078125 C56.53550255 43.1416284 66.9844172 74.71330081 68.14428711 105.87670898 C69.18796175 147.10473209 63.33374919 185.97205738 34 217 C33.23945313 217.83660156 32.47890625 218.67320312 31.6953125 219.53515625 C25.19751026 226.42708748 18.08443859 231.20957015 10 236 C8.60201172 236.84498047 8.60201172 236.84498047 7.17578125 237.70703125 C2.78107166 240.27591947 2.78107166 240.27591947 1 241 C0.34 240.67 -0.32 240.34 -1 240 C-0.21496094 239.29875 0.57007813 238.5975 1.37890625 237.875 C27.65866351 214.23326808 39.12639002 183.56144543 44 149 C44.20367187 147.71222656 44.40734375 146.42445313 44.6171875 145.09765625 C47.43661837 125.9853254 46.88327082 106.07242003 44 87 C43.87641113 86.17226074 43.75282227 85.34452148 43.62548828 84.49169922 C40.571312 64.85982427 34.74996579 46.34766524 25 29 C24.44699219 28.00742187 23.89398438 27.01484375 23.32421875 25.9921875 C17.44960197 16.14975079 9.66487011 7.22847185 0 1 C0 0.67 0 0.34 0 0 Z " fill="#D6D7FC" transform="translate(303,456)"/>
<path d="M0 0 C2.8660458 2.24299236 4.59928073 3.85949132 5.8125 7.3125 C5.874375 7.869375 5.93625 8.42625 6 9 C6.556875 8.071875 7.11375 7.14375 7.6875 6.1875 C10.05412916 2.92538954 11.30842992 1.51018776 15 0 C20.62132473 -0.53536426 24.18250633 -0.21166245 29 3 C34.96175931 8.68446818 36.88320291 14.99613379 37.25 23.14453125 C37.49390729 34.16775348 36.60902183 45.11478806 35.71875 56.09326172 C35.17890538 62.92444774 34.80684652 69.70906742 34.8125 76.5625 C34.81185547 77.30000488 34.81121094 78.03750977 34.81054688 78.79736328 C34.80933662 82.5242615 34.80933662 82.5242615 36 86 C38.57986274 85.64415686 39.74098811 85.28786554 41.5078125 83.32421875 C46.73139451 75.18801117 47.8302399 64.4042555 49 55 C49.66 55 50.32 55 51 55 C56.54531814 67.08087166 54.98445498 75.74909459 51 88 C48.09888269 95.1868588 44.56732707 101.62178195 38 106 C33.57963589 106.78414622 28.95088839 107.25107071 25.05078125 104.75 C19.06816878 98.23995318 17.49250217 89.83351556 17.6875 81.25 C17.70006836 79.99654785 17.70006836 79.99654785 17.71289062 78.71777344 C17.87639476 69.61713327 18.60855699 60.54766573 19.27905273 51.47338867 C20.96966838 34.99770532 20.96966838 34.99770532 18 19 C14.63147485 18.9434891 14.63147485 18.9434891 11 20 C6.1803886 26.51298837 4.78546876 33.84417126 4.21875 41.8359375 C4.16032425 42.58097534 4.1018985 43.32601318 4.04170227 44.09362793 C3.85370701 46.52025071 3.67653272 48.94751863 3.5 51.375 C3.37233215 53.06008463 3.24431693 54.74514298 3.1159668 56.43017578 C1.89894017 72.60899645 0.91425298 88.80158837 0 105 C-5.28 105 -10.56 105 -16 105 C-16.16139312 94.28936543 -15.61345282 83.75424751 -14.83197021 73.07833862 C-14.47689744 68.22611372 -14.13743977 63.37279249 -13.796875 58.51953125 C-13.72826263 57.5467775 -13.65965027 56.57402374 -13.58895874 55.5717926 C-12.84852328 44.99427748 -12.23322634 34.41027518 -11.64697266 23.82324219 C-11.44375325 20.21461352 -11.22419018 16.60737639 -11 13 C-10.94360352 11.91219238 -10.88720703 10.82438477 -10.82910156 9.70361328 C-10.76432617 8.70958496 -10.69955078 7.71555664 -10.6328125 6.69140625 C-10.5827002 5.82845947 -10.53258789 4.9655127 -10.48095703 4.07641602 C-9.2861965 -1.08167451 -4.26040803 -0.51418718 0 0 Z " fill="#5C1D89" transform="translate(770,524)"/>
<path d="M0 0 C2.09375 0.546875 2.09375 0.546875 4.09375 2.421875 C5.09375 4.546875 5.09375 4.546875 6.09375 7.546875 C6.50367188 7.05316406 6.91359375 6.55945313 7.3359375 6.05078125 C7.87476563 5.41011719 8.41359375 4.76945313 8.96875 4.109375 C9.50242187 3.47128906 10.03609375 2.83320312 10.5859375 2.17578125 C12.86880026 -0.29042022 13.99042904 -0.44337774 17.40625 -0.765625 C21.76675762 -0.39609046 23.11421118 0.40180625 26.09375 3.546875 C30.05909515 9.01631658 29.72067664 15.06863301 29.09375 21.546875 C27.85806262 27.23103696 24.70921388 30.30623015 20.09375 33.546875 C19.43375 33.546875 18.77375 33.546875 18.09375 33.546875 C18.04476562 32.94359375 17.99578125 32.3403125 17.9453125 31.71875 C17.87054687 30.91953125 17.79578125 30.1203125 17.71875 29.296875 C17.61433594 28.11351562 17.61433594 28.11351562 17.5078125 26.90625 C17.07014043 24.412345 16.46192566 22.67514825 15.09375 20.546875 C12.53855079 19.73516272 12.53855079 19.73516272 10.09375 19.546875 C7.91000064 22.41304604 6.27313598 24.75757667 5.46875 28.296875 C6.26472849 32.43596315 8.17406808 35.1611928 10.4296875 38.68359375 C18.86887328 53.20454018 20.82272594 71.48971413 17.33984375 87.875 C15.40864323 94.38806841 13.1230442 99.87396835 7.96875 104.421875 C3.62779038 106.12051137 -0.3140717 106.29872442 -4.90625 105.546875 C-11.06275721 102.12659322 -12.91415173 97.11767035 -14.90625 90.546875 C-17.5150727 79.24197665 -15.85330523 66.55964664 -15.1015625 55.08203125 C-15.01650342 53.75118574 -14.93161743 52.42032916 -14.84689331 51.08946228 C-14.67009582 48.33050601 -14.48978605 45.57180667 -14.30712891 42.81323242 C-14.07466118 39.29487942 -13.8534735 35.77591478 -13.63511848 32.25666142 C-13.42262772 28.86465324 -13.19893959 25.47340557 -12.9765625 22.08203125 C-12.89938995 20.82777847 -12.82221741 19.5735257 -12.7427063 18.28126526 C-11.94936668 6.61371534 -11.94936668 6.61371534 -9.90625 1.546875 C-6.12741344 -0.97234937 -4.34033549 -0.59186393 0 0 Z " fill="#5D1D8A" transform="translate(534.90625,524.453125)"/>
<path d="M0 0 C6.02561102 7.97986324 6.38909176 17.14332709 6.375 26.8125 C6.37411377 27.90602783 6.37322754 28.99955566 6.37231445 30.1262207 C6.18962256 42.85251974 4.88128289 56.80821312 -2.75 67.4375 C-5 69 -5 69 -8.5 69.125 C-12 68 -12 68 -14.3125 65.375 C-18.1769533 57.64609339 -18.3429142 50.47818293 -18.31567383 41.99633789 C-18.31254455 39.96639677 -18.33590987 37.93796149 -18.36132812 35.90820312 C-18.42035598 23.722797 -17.61440252 9.5267339 -9.1875 -0.0625 C-5.68350456 -1.56421233 -3.59214831 -1.1546191 0 0 Z " fill="#FCF9FD" transform="translate(727,543)"/>
<path d="M0 0 C2.4375 1.3125 2.4375 1.3125 4 4 C4.93180122 13.29833443 3.6007847 23.12410643 2.93798828 32.42529297 C2.81244813 34.22817993 2.6943074 36.03159707 2.58349609 37.83544922 C2.42102599 40.4776253 2.23635586 43.11745154 2.046875 45.7578125 C1.97941071 46.94880051 1.97941071 46.94880051 1.9105835 48.16384888 C1.37196841 55.05556231 -0.78031975 60.96643699 -4.875 66.5625 C-7.83553555 68.56521522 -9.50282531 68.65572025 -13 68 C-17.81164157 64.01321127 -19.03827529 57.9306357 -20 52 C-21.21146792 36.10357636 -20.64328273 16.36856065 -11 3 C-7.36755353 -0.27999127 -4.89225653 -0.61153207 0 0 Z " fill="#FCF9FD" transform="translate(667,542)"/>
<path d="M0 0 C2.19824219 1.14916992 2.19824219 1.14916992 4 3 C4.43457031 5.71606445 4.43457031 5.71606445 4.328125 9.05078125 C4.29138672 10.30455566 4.25464844 11.55833008 4.21679688 12.85009766 C4.14845137 14.23359766 4.07605815 15.61690256 4 17 C3.94453003 18.06320465 3.94453003 18.06320465 3.88793945 19.14788818 C3.63730459 23.71536537 3.30956184 28.27362265 2.93798828 32.83276367 C2.74946002 35.19426382 2.58361031 37.55672006 2.41796875 39.91992188 C0.92580939 59.45222658 0.92580939 59.45222658 -4.94628906 66.25463867 C-7 68 -7 68 -10 68.5625 C-13 68 -13 68 -15.25 65.875 C-19.55648532 58.80005983 -19.37244254 51.71551783 -19.37060547 43.69946289 C-19.37492512 41.59891272 -19.41113722 39.50056238 -19.44921875 37.40039062 C-19.56302197 24.01394239 -17.50145832 12.51915228 -9.1875 1.625 C-6.02166104 -0.72676608 -3.84455258 -0.48056907 0 0 Z " fill="#FCFAFD" transform="translate(602,542)"/>
<path d="M0 0 C18.81 0 37.62 0 57 0 C56.34 4.62 55.68 9.24 55 14 C37.18 14.33 19.36 14.66 1 15 C0.67 10.05 0.34 5.1 0 0 Z " fill="#4178D3" transform="translate(232,408)"/>
<path d="M0 0 C0.66 0 1.32 0 2 0 C3.61158821 3.51681325 4.37893087 6.84903679 4.93579102 10.66967773 C7.45258395 27.83354063 14.38547647 46.10564422 25.80859375 59.3984375 C28 62 28 62 28 64 C28.66 64 29.32 64 30 64 C30.33 65.32 30.66 66.64 31 68 C31.66 68 32.32 68 33 68 C34.515625 69.609375 34.515625 69.609375 36.25 71.75 C38.48076025 74.39698176 40.49456498 76.54352975 43.4375 78.375 C44.283125 78.91125 45.12875 79.4475 46 80 C46 80.66 46 81.32 46 82 C46.5671875 82.26296875 47.134375 82.5259375 47.71875 82.796875 C50.17105444 84.09021364 52.27193722 85.60123354 54.5 87.25 C62.33333387 92.77941214 70.51071685 96.84918023 79.76953125 99.3515625 C82 100 82 100 85.5 101.5625 C93.13283815 104.69741567 101.19468957 105.36884449 109.375 105.6875 C110.31964111 105.72657471 111.26428223 105.76564941 112.23754883 105.8059082 C127.84280969 106.3402548 144.59566592 106.66867318 159 100 C160.39174092 99.54965109 161.78799531 99.11310965 163.1875 98.6875 C170.0619171 96.45891538 176.59312218 93.10253031 182.734375 89.3125 C185 88 185 88 187 88 C187 87.34 187 86.68 187 86 C188.69491614 84.59731078 190.457835 83.27609654 192.25 82 C193.22453125 81.29875 194.1990625 80.5975 195.203125 79.875 C198 78 198 78 200.28125 76.8828125 C202.5620391 75.71131628 203.06817385 74.32956537 204 72 C204.66 72 205.32 72 206 72 C206.268125 71.42765625 206.53625 70.8553125 206.8125 70.265625 C208.04132636 67.92115366 209.42522176 65.87595062 211 63.75 C211.515625 63.04359375 212.03125 62.3371875 212.5625 61.609375 C213.036875 61.07828125 213.51125 60.5471875 214 60 C214.66 60 215.32 60 216 60 C216.26554688 59.29488281 216.53109375 58.58976563 216.8046875 57.86328125 C218.06498967 54.84432214 219.53957994 52.04814924 221.125 49.1875 C221.66382813 48.21167969 222.20265625 47.23585938 222.7578125 46.23046875 C223.16773438 45.49441406 223.57765625 44.75835938 224 44 C224.66 44 225.32 44 226 44 C226 42.68 226 41.36 226 40 C226.66 40 227.32 40 228 40 C228 38.68 228 37.36 228 36 C228.66 36 229.32 36 230 36 C229.938125 35.319375 229.87625 34.63875 229.8125 33.9375 C230.13689164 28.85536437 232.67797477 24.46543314 235 20 C236.49293852 24.61761919 234.86269351 27.98147197 233.125 32.3125 C232.80982422 33.107771 232.49464844 33.90304199 232.16992188 34.72241211 C227.49031182 46.11817125 221.0506844 56.66185798 213 66 C212.17757812 66.95519531 211.35515625 67.91039062 210.5078125 68.89453125 C190.34066371 91.82594521 162.42129949 106.11377269 132 109 C99.80820724 111.02593682 68.0226823 103.07497893 43 82 C18.59120346 60.39580486 6.23022619 33.7160582 0 2 C0 1.34 0 0.68 0 0 Z " fill="#A940BE" transform="translate(139,609)"/>
<path d="M0 0 C0.33 0 0.66 0 1 0 C1.20157715 1.23975586 1.4031543 2.47951172 1.61083984 3.75683594 C2.3672755 8.40873006 3.12402316 13.06057338 3.88085938 17.71240234 C4.20678928 19.71596948 4.53263745 21.71954992 4.85839844 23.72314453 C5.17484946 25.6694154 5.49143714 27.61566406 5.8081665 29.56188965 C6.11701123 31.46033466 6.4254055 33.35885301 6.7333374 35.25744629 C7.67772128 41.06870091 8.65336573 46.87329667 9.68994141 52.66894531 C10 55 10 55 10 60 C3.73 60 -2.54 60 -9 60 C-8.3777407 51.57410113 -7.40592544 43.28681044 -6.125 34.9375 C-5.94864014 33.770979 -5.77228027 32.60445801 -5.59057617 31.40258789 C-5.06453248 27.9344111 -4.53251874 24.46718753 -4 21 C-3.70173513 19.0312633 -3.40355154 17.06251428 -3.10546875 15.09375 C-2.84175828 13.37490593 -2.57747736 11.65614923 -2.3125 9.9375 C-2.19342285 9.1530249 -2.0743457 8.3685498 -1.95166016 7.56030273 C-1.11622623 2.23245246 -1.11622623 2.23245246 0 0 Z " fill="#476DC3" transform="translate(260,300)"/>
<path d="M0 0 C2.3259338 3.00085032 4.35485225 6.10194997 6.3359375 9.33984375 C6.98240234 10.39365234 7.62886719 11.44746094 8.29492188 12.53320312 C9.32456055 14.21833008 9.32456055 14.21833008 10.375 15.9375 C11.80911507 18.28042656 13.24430474 20.62269367 14.6796875 22.96484375 C15.22088226 23.84854141 15.22088226 23.84854141 15.77301025 24.75009155 C18.1442668 28.61788243 20.53743509 32.47125447 22.9453125 36.31640625 C23.84757568 37.75995483 23.84757568 37.75995483 24.76806641 39.23266602 C25.90489921 41.04913061 27.04509284 42.86349703 28.18896484 44.67553711 C28.69379395 45.48385986 29.19862305 46.29218262 29.71875 47.125 C30.16154297 47.82882812 30.60433594 48.53265625 31.06054688 49.2578125 C32 51 32 51 32 53 C29.5636811 53.67126129 27.12611117 54.33716354 24.6875 55 C23.99720703 55.19078125 23.30691406 55.3815625 22.59570312 55.578125 C19.64212051 56.37716184 17.07440781 57 14 57 C13.83918945 56.34628418 13.67837891 55.69256836 13.51269531 55.01904297 C10.81393752 44.071942 8.11329831 33.14595179 4.9453125 22.32421875 C3.81135121 18.33661108 2.76644056 14.33144654 1.75 10.3125 C1.57452637 9.62800781 1.39905273 8.94351562 1.21826172 8.23828125 C0.51094842 5.40617312 0 2.93239158 0 0 Z " fill="#4469C1" transform="translate(207,305)"/>
<path d="M0 0 C1.2745267 2.5490534 0.83772861 3.39340448 0.15136719 6.12329102 C-0.1645639 7.40086021 -0.1645639 7.40086021 -0.48687744 8.70423889 C-0.84141998 10.09007423 -0.84141998 10.09007423 -1.203125 11.50390625 C-1.44158142 12.45635727 -1.68003784 13.40880829 -1.92572021 14.39012146 C-2.43363443 16.41269588 -2.94498845 18.43440907 -3.45947266 20.45532227 C-4.24010239 23.52359731 -5.00964586 26.59448258 -5.77734375 29.66601562 C-6.27277632 31.63297915 -6.76885037 33.59978124 -7.265625 35.56640625 C-7.60802216 36.93098717 -7.60802216 36.93098717 -7.95733643 38.32313538 C-9.40075207 43.97304035 -11.07529113 49.49532633 -13 55 C-18.75551978 53.89965066 -24.39152843 52.70692613 -30 51 C-28.71477922 46.71869211 -27.08702261 43.18489173 -24.7265625 39.39453125 C-24.07171875 38.33669434 -23.416875 37.27885742 -22.7421875 36.18896484 C-21.69417969 34.51761475 -21.69417969 34.51761475 -20.625 32.8125 C-19.90577376 31.65605777 -19.18702771 30.49931677 -18.46875 29.34228516 C-16.3217782 25.88899499 -14.16219786 22.44377875 -12 19 C-11.36416992 17.98695801 -10.72833984 16.97391602 -10.07324219 15.93017578 C-6.73013096 10.61076521 -3.37220791 5.30100865 0 0 Z " fill="#4369C3" transform="translate(312,307)"/>
<path d="M0 0 C0.33 0 0.66 0 1 0 C1.22913474 8.29855705 0.53060537 16.43681212 -0.3125 24.6875 C-0.43044922 25.96689453 -0.54839844 27.24628906 -0.66992188 28.56445312 C-2.14712789 43.14712789 -2.14712789 43.14712789 -7 48 C-9.9375 48.125 -9.9375 48.125 -13 47 C-15.97158123 42.48231931 -16.6049708 37.27188836 -16 32 C-13.54334449 20.25718667 -7.60544592 9.26985962 0 0 Z " fill="#FAF5FB" transform="translate(665,627)"/>
<path d="M0 0 C2 2 2 2 2.265625 4.05859375 C2.26046875 4.84363281 2.2553125 5.62867188 2.25 6.4375 C2.25773437 7.61119141 2.25773437 7.61119141 2.265625 8.80859375 C2 11 2 11 0 14 C-0.63929718 15.83850054 -0.63929718 15.83850054 -1.11328125 17.84375 C-1.30664062 18.59011719 -1.5 19.33648438 -1.69921875 20.10546875 C-1.90160156 20.89566406 -2.10398437 21.68585937 -2.3125 22.5 C-4.24171198 29.72306151 -6.61502622 36.31574799 -10 43 C-10.54914063 44.2375 -10.54914063 44.2375 -11.109375 45.5 C-14.34469659 52.59111581 -18.91401961 58.14102087 -24 64 C-24.91845703 65.11955078 -24.91845703 65.11955078 -25.85546875 66.26171875 C-36.90673947 79.53841698 -51.71553949 85.67519488 -68.62890625 87.75 C-81.1566548 88.67905667 -95.89784531 85.96660905 -107 80 C-109.625 77.625 -109.625 77.625 -112 75 C-113.27682332 74.04238251 -114.57006106 73.10643601 -115.875 72.1875 C-121.50954954 68.04695981 -127.05403669 62.91898066 -129 56 C-129.66 56 -130.32 56 -131 56 C-145.54904459 30.25541401 -145.54904459 30.25541401 -145 19 C-143.12043064 21.81935404 -142.14447549 24.35127379 -141.09814453 27.54663086 C-136.63474156 41.14629724 -130.64459434 53.26895926 -121 64 C-120.40960938 64.69480469 -119.81921875 65.38960937 -119.2109375 66.10546875 C-110.2932247 75.91495283 -96.04036709 83.38014382 -82.74316406 84.12670898 C-63.64801509 84.71015116 -46.51696286 82.1639387 -31.75 69 C-13.45328421 51.70906155 -3.25919037 24.50012071 0 0 Z " fill="#AA47C5" transform="translate(334,611)"/>
<path d="M0 0 C1.19882812 -0.02449219 2.39765625 -0.04898437 3.6328125 -0.07421875 C15.05205494 -0.11137464 24.28130392 3.00724057 34.25 8.375 C34.25 9.035 34.25 9.695 34.25 10.375 C34.971875 10.6225 35.69375 10.87 36.4375 11.125 C39.52606582 12.49769592 41.76011418 14.09853296 44.25 16.375 C44.25 17.035 44.25 17.695 44.25 18.375 C44.82105469 18.59414063 45.39210938 18.81328125 45.98046875 19.0390625 C58.22477319 26.24655324 65.9948516 46.43704879 70.25 59.375 C70.87044419 62.46089346 71.13934722 65.22139563 71.25 68.375 C69.52670514 65.79005771 68.6227173 63.89465142 67.62109375 61.015625 C59.85236527 39.28311029 48.92994948 18.30392451 27.0546875 7.84765625 C10.25799275 0.99794031 -6.98998081 -0.10554776 -23.91308594 6.59228516 C-37.15304831 12.23387465 -47.22316739 21.20833907 -54.75 33.375 C-55.39710938 34.39078125 -56.04421875 35.4065625 -56.7109375 36.453125 C-67.44226528 54.1330903 -73.52677447 74.86929221 -75.75 95.375 C-76.41 95.045 -77.07 94.715 -77.75 94.375 C-77.97422932 88.75431843 -77.16668027 83.83486838 -75.875 78.375 C-75.70097656 77.60671875 -75.52695313 76.8384375 -75.34765625 76.046875 C-74.29058789 71.44275503 -73.08742685 66.90538283 -71.75 62.375 C-71.09 62.375 -70.43 62.375 -69.75 62.375 C-69.79511719 61.65699219 -69.84023437 60.93898438 -69.88671875 60.19921875 C-69.73198457 57.00285265 -68.94275288 55.06267292 -67.5625 52.1875 C-67.10875 51.23359375 -66.655 50.2796875 -66.1875 49.296875 C-65.713125 48.33265625 -65.23875 47.3684375 -64.75 46.375 C-64.29625 45.45203125 -63.8425 44.5290625 -63.375 43.578125 C-62.17849222 41.1708653 -60.96755564 38.77166216 -59.75 36.375 C-59.08242212 35.04212266 -58.41545095 33.7089405 -57.75 32.375 C-57.09 32.375 -56.43 32.375 -55.75 32.375 C-55.46125 31.611875 -55.1725 30.84875 -54.875 30.0625 C-53.75 27.375 -53.75 27.375 -51.75 24.375 C-51.09 24.375 -50.43 24.375 -49.75 24.375 C-49.51667969 23.81296875 -49.28335938 23.2509375 -49.04296875 22.671875 C-44.77471866 15.08960596 -36.57083497 9.89930914 -29.0625 5.875 C-28.45768799 5.54918945 -27.85287598 5.22337891 -27.22973633 4.88769531 C-18.30494802 0.34135573 -9.87690764 0.01048504 0 0 Z " fill="#5574BF" transform="translate(260.75,454.625)"/>
<path d="M0 0 C31.7261608 -0.88583903 62.20561436 6.93788531 86.11328125 28.9453125 C87.78258115 30.59673981 89.39726094 32.28433082 91 34 C91.825 34.804375 92.65 35.60875 93.5 36.4375 C111.82643484 55.22209571 126.11237785 84.26913831 126.1875 110.9375 C126.1412379 112.2923186 126.08594772 113.64711915 126 115 C123.61174774 111.15226025 123.25468277 106.95382905 122.625 102.5625 C120.85741588 91.23130758 117.61990589 80.94713792 112.953125 70.4609375 C112 68 112 68 112 65 C111.34 65 110.68 65 110 65 C109.60167969 63.98550781 109.20335937 62.97101563 108.79296875 61.92578125 C107.09828018 57.96951533 104.84482549 54.64874871 102.3125 51.1875 C98 45.25697674 98 45.25697674 98 43 C97.34 43 96.68 43 96 43 C96 42.34 96 41.68 96 41 C95.34 41 94.68 41 94 41 C92.5546875 39.49609375 92.5546875 39.49609375 90.875 37.4375 C84.46317572 29.81322718 84.46317572 29.81322718 76 25 C74.64499081 23.68870078 73.31328657 22.35308313 72 21 C69.37751702 18.78727998 67.39027463 17.60540618 64 17 C64 16.34 64 15.68 64 15 C62.68 15 61.36 15 60 15 C60 14.34 60 13.68 60 13 C59.42765625 12.87238281 58.8553125 12.74476563 58.265625 12.61328125 C55.96479857 11.99047134 53.93139009 11.14471838 51.75 10.1875 C47.19959807 8.34438468 42.62130695 6.97191453 37.875 5.75 C37.21854492 5.5749292 36.56208984 5.3998584 35.88574219 5.21948242 C31.0952113 4.03141641 26.88734937 3.93476844 22 4 C19.453125 3.59765625 19.453125 3.59765625 17.25 3.0625 C11.53983172 1.80839762 5.82496211 1.38032399 0 1 C0 0.67 0 0.34 0 0 Z " fill="#4B74BF" transform="translate(255,436)"/>
<path d="M0 0 C0 0.33 0 0.66 0 1 C-1.0415625 1.09796875 -2.083125 1.1959375 -3.15625 1.296875 C-31.67312666 4.17709633 -54.21986815 14.08988977 -75 34 C-75.89332031 34.81855469 -76.78664062 35.63710938 -77.70703125 36.48046875 C-88.77042477 46.95587772 -97.13400471 59.69659238 -102.27734375 74.05859375 C-102.97983576 75.94582904 -103.80126743 77.78744273 -104.625 79.625 C-105.92234136 82.80938333 -106.58539434 85.60023359 -107 89 C-107.33 89 -107.66 89 -108 89 C-108.74840297 71.49888448 -96.12223845 52.75855924 -85 40 C-84.48824219 39.36835938 -83.97648437 38.73671875 -83.44921875 38.0859375 C-63.47211721 13.63956527 -31.32623124 -1.18460538 0 0 Z " fill="#4C75C3" transform="translate(254,437)"/>
<path d="M0 0 C2.16796875 1.1171875 2.16796875 1.1171875 4 3 C4.4609375 5.99609375 4.4609375 5.99609375 4.375 9.4375 C4.36210937 10.57058594 4.34921875 11.70367187 4.3359375 12.87109375 C4.01620537 15.84906391 3.6656028 17.54630997 2 20 C-1 22 -1 22 -4.5 21.8125 C-8.0134436 20.99687916 -8.91302223 20.75130102 -11 18 C-11.97831016 12.57195653 -10.96900935 7.07797148 -9 2 C-5.51131349 -0.32579101 -4.10281481 -0.41865457 0 0 Z " fill="#416EC4" transform="translate(290,373)"/>
<path d="M0 0 C2.84780619 2.23206431 3.84997666 3.54992999 5 7 C5.11904875 9.01829161 5.17521712 11.04073771 5.1875 13.0625 C5.20167969 14.12597656 5.21585938 15.18945312 5.23046875 16.28515625 C5 19 5 19 3 21 C-0.05506018 21.55072242 -2.94472166 21.5493895 -6 21 C-9.58983128 17.07362204 -9.86291252 12.56279725 -10.3125 7.4375 C-10 4 -10 4 -8.375 1.5625 C-5.28314769 -0.47161336 -3.63632575 -0.60605429 0 0 Z " fill="#426EC3" transform="translate(236,373)"/>
<path d="M0 0 C3.03971155 0.99121029 4.04100883 1.38586011 5.875 3.9375 C6.30859375 7.15234375 6.30859375 7.15234375 6.3125 10.875 C6.33183594 12.10089844 6.35117187 13.32679688 6.37109375 14.58984375 C5.875 17.9375 5.875 17.9375 4.03515625 20.34765625 C1.875 21.9375 1.875 21.9375 -1.125 22.4375 C-4.87881006 21.81186499 -5.82396674 20.93419448 -8.125 17.9375 C-8.69140625 14.625 -8.69140625 14.625 -8.6875 10.9375 C-8.70941406 9.720625 -8.73132813 8.50375 -8.75390625 7.25 C-8.125 3.9375 -8.125 3.9375 -5.78515625 1.49609375 C-3.125 -0.0625 -3.125 -0.0625 0 0 Z " fill="#426FC5" transform="translate(261.125,372.0625)"/>
<path d="M0 0 C0.66 0 1.32 0 2 0 C6.99354672 10.25373914 10.55851962 21.96384111 7.32421875 33.38671875 C6.5 35.3125 6.5 35.3125 5 38 C2.5625 37.625 2.5625 37.625 0 37 C-1.22595787 34.54808426 -1.12928792 32.93491934 -1.1328125 30.1953125 C-1.13474609 29.22408447 -1.13667969 28.25285645 -1.13867188 27.25219727 C-1.13416016 26.22022217 -1.12964844 25.18824707 -1.125 24.125 C-1.12209961 22.56446899 -1.12209961 22.56446899 -1.11914062 20.97241211 C-1.07954759 13.9341995 -0.8422271 6.99349292 0 0 Z " fill="#F6F0FA" transform="translate(537,572)"/>
<path d="M0 0 C0.66 0 1.32 0 2 0 C3.61158821 3.51681325 4.37893087 6.84903679 4.93579102 10.66967773 C7.45258395 27.83354063 14.38547647 46.10564422 25.80859375 59.3984375 C28 62 28 62 28 64 C28.66 64 29.32 64 30 64 C30.33 65.32 30.66 66.64 31 68 C31.66 68 32.32 68 33 68 C34.515625 69.609375 34.515625 69.609375 36.25 71.75 C38.48076025 74.39698176 40.49456498 76.54352975 43.4375 78.375 C44.283125 78.91125 45.12875 79.4475 46 80 C46 80.66 46 81.32 46 82 C46.5671875 82.26296875 47.134375 82.5259375 47.71875 82.796875 C50.17105444 84.09021364 52.27193722 85.60123354 54.5 87.25 C61.23277381 92.02360624 68.51729581 95.58671344 76.125 98.75 C79 100 79 100 81 102 C75.93963585 101.44382995 71.85395312 99.73983145 67.375 97.4375 C66.3238501 96.90177368 66.3238501 96.90177368 65.25146484 96.35522461 C54.67990579 90.86220686 45.59500957 84.23984389 37 76 C36.25105469 75.31421875 35.50210938 74.6284375 34.73046875 73.921875 C14.60856537 54.89240421 5.22407867 28.59408795 0 2 C0 1.34 0 0.68 0 0 Z " fill="#A845BE" transform="translate(139,609)"/>
<path d="M0 0 C3.53245708 6.4110411 0.8938895 13.53056586 -0.85546875 20.3203125 C-6.34337729 38.91200265 -14.26636134 56.19769315 -28 70 C-29.21957051 71.4070045 -30.428976 72.82292591 -31.625 74.25 C-40.72077622 84.63610726 -54.25466431 95.05680739 -68 98 C-68 94 -68 94 -66.46875 92.296875 C-65.8190625 91.78640625 -65.169375 91.2759375 -64.5 90.75 C-63.52546875 89.96882812 -63.52546875 89.96882812 -62.53125 89.171875 C-61.77328125 88.59179688 -61.77328125 88.59179688 -61 88 C-60.34 88.33 -59.68 88.66 -59 89 C-61.31 90.98 -63.62 92.96 -66 95 C-47.1300421 86.3187028 -29.73056427 73.15120324 -19 55 C-18.35804688 53.9171875 -17.71609375 52.834375 -17.0546875 51.71875 C-7.73091089 35.4054788 -2.9580633 18.46492929 0 0 Z " fill="#9459C8" transform="translate(369,601)"/>
<path d="M0 0 C0.33 0 0.66 0 1 0 C-0.16857019 26.23132561 -0.16857019 26.23132561 -5 32 C-6.9375 31.625 -6.9375 31.625 -9 31 C-11.44556599 26.10886803 -10.55776975 19.8862338 -9.05859375 14.81640625 C-6.78506359 9.10763617 -4.357719 4.357719 0 0 Z " fill="#F6EFFA" transform="translate(449,578)"/>
<path d="M0 0 C2.76276177 0.52268466 5.3260876 1.10869587 8 2 C8 2.66 8 3.32 8 4 C8.53625 4.103125 9.0725 4.20625 9.625 4.3125 C12.62502044 5.18092697 15.2379535 6.55620296 18 8 C18 8.66 18 9.32 18 10 C18.5775 10.28875 19.155 10.5775 19.75 10.875 C22.875 12.4375 22.875 12.4375 26 14 C26 14.66 26 15.32 26 16 C26.66 16 27.32 16 28 16 C28 16.66 28 17.32 28 18 C28.66 18 29.32 18 30 18 C30 18.66 30 19.32 30 20 C30.66 20 31.32 20 32 20 C37.52708282 25.22083285 41.77962128 31.72353933 46 38 C46.65484375 38.92683594 47.3096875 39.85367188 47.984375 40.80859375 C50.25332923 44.40110461 51.91803516 48.03143409 53.5625 51.9375 C53.85318359 52.61490234 54.14386719 53.29230469 54.44335938 53.99023438 C55.0221264 55.34069077 55.59720576 56.69273398 56.16845703 58.04638672 C56.9553636 59.89513199 57.77175953 61.73124434 58.58984375 63.56640625 C61.39368798 70.39349511 62.60062111 77.17799856 63.625 84.4375 C63.7590625 85.35982422 63.893125 86.28214844 64.03125 87.23242188 C64.35844081 89.4877014 64.68124951 91.74351482 65 94 C64.01 94.495 64.01 94.495 63 95 C62.87995605 94.36199463 62.75991211 93.72398926 62.63623047 93.06665039 C56.47564813 60.79458757 45.70927238 30.87584143 17.5625 11.25 C11.89777571 7.4623043 6.06612951 4.0999259 0 1 C0 0.67 0 0.34 0 0 Z " fill="#5274C6" transform="translate(307,457)"/>
<path d="M0 0 C2.05575564 3.08363346 2.44536404 4.64433227 3 8.2265625 C3.165 9.25910156 3.33 10.29164063 3.5 11.35546875 C3.665 12.43441406 3.83 13.51335938 4 14.625 C6.0366503 28.42967786 6.0366503 28.42967786 10.1015625 41.73046875 C10.77401737 43.42914823 11.40852528 45.14293522 12.0234375 46.86328125 C16.53913654 59.27387693 22.42562352 70.49758103 30.53125 80.92578125 C32 83 32 83 32 85 C32.66 85 33.32 85 34 85 C35.4375 86.49609375 35.4375 86.49609375 37 88.4375 C39.14525044 91.15188238 39.14525044 91.15188238 42 93 C42 93.66 42 94.32 42 95 C26.69088129 88.1396223 16.03934712 65.67210819 10.27734375 50.6875 C4.42864379 34.44961402 0.29631589 17.29407278 0 0 Z " fill="#9B4CC3" transform="translate(172,598)"/>
<path d="M0 0 C1.48011371 0.30798326 2.95907325 0.621518 4.4375 0.9375 C5.26121094 1.11152344 6.08492187 1.28554688 6.93359375 1.46484375 C9 2 9 2 10 3 C16.71075283 4.78560967 23.45973969 5.41742171 30.375 5.6875 C31.31746582 5.7272998 32.25993164 5.76709961 33.23095703 5.80810547 C45.53968185 6.23750348 57.79605068 5.64016631 70 4 C68.68 4.33 67.36 4.66 66 5 C66 5.66 66 6.32 66 7 C45.10923616 11.49091276 22.11087997 10.20772523 2 3 C2 2.34 2 1.68 2 1 C1.34 0.67 0.68 0.34 0 0 Z " fill="#B43CC4" transform="translate(218,709)"/>
<path d="M0 0 C0.33 0 0.66 0 1 0 C-0.23688969 19.23688969 -0.23688969 19.23688969 -3 22 C-3.21116846 24.26712807 -3.36890094 26.53933594 -3.5 28.8125 C-3.89305034 35.58559956 -3.89305034 35.58559956 -4.50474548 37.95574951 C-5.01753664 40.07238559 -5.15714728 41.95122003 -5.20532227 44.12597656 C-5.22526749 44.92650452 -5.24521271 45.72703247 -5.26576233 46.55181885 C-5.28247482 47.40612488 -5.29918732 48.26043091 -5.31640625 49.140625 C-5.33718735 50.02280701 -5.35796844 50.90498901 -5.37937927 51.81390381 C-5.44464867 54.62585831 -5.50365447 57.43790445 -5.5625 60.25 C-5.60570673 62.15886356 -5.64932171 64.06771793 -5.69335938 65.9765625 C-5.80030687 70.65094826 -5.90163785 75.32542602 -6 80 C-8.11931876 76.5316412 -8.25743076 73.77688394 -8.265625 69.75 C-8.26981445 68.51161377 -8.27400391 67.27322754 -8.27832031 65.99731445 C-8.26897461 64.67820068 -8.25962891 63.35908691 -8.25 62 C-8.24689819 61.32560883 -8.24379639 60.65121765 -8.24060059 59.95639038 C-8.12982486 39.44127298 -5.83387115 19.7153592 0 0 Z " fill="#7B6ABF" transform="translate(145,520)"/>
<path d="M0 0 C4.18320752 3.00923454 7.01482555 6.41757101 9.8125 10.6875 C10.24264404 11.34105469 10.67278809 11.99460937 11.1159668 12.66796875 C22.75950191 30.83988537 32.38892613 54.13727394 31 76 C28.61174774 72.15226025 28.25468277 67.95382905 27.625 63.5625 C25.85741588 52.23130758 22.61990589 41.94713792 17.953125 31.4609375 C17 29 17 29 17 26 C16.34 26 15.68 26 15 26 C14.40251953 24.47826172 14.40251953 24.47826172 13.79296875 22.92578125 C12.09828018 18.96951533 9.84482549 15.64874871 7.3125 12.1875 C3 6.25697674 3 6.25697674 3 4 C2.34 4 1.68 4 1 4 C0.67 2.68 0.34 1.36 0 0 Z " fill="#6E71C1" transform="translate(350,475)"/>
<path d="M0 0 C2 3 2 3 1.93920898 4.90673828 C1.79298096 5.62071777 1.64675293 6.33469727 1.49609375 7.0703125 C1.33544434 7.87525146 1.17479492 8.68019043 1.00927734 9.50952148 C0.82059082 10.37262939 0.6319043 11.2357373 0.4375 12.125 C0.24623535 13.02226807 0.0549707 13.91953613 -0.14208984 14.84399414 C-0.7380329 17.56861498 -1.36174103 20.28500274 -2 23 C-2.17418457 23.74717285 -2.34836914 24.4943457 -2.52783203 25.26416016 C-7.35152982 45.2228481 -17.02599167 68.45399384 -34 81 C-32.44319124 77.43921401 -30.27088852 74.81603661 -27.75 71.875 C-19.26127202 61.57209411 -14.17383059 50.20076568 -9 38 C-8.60554688 37.07445312 -8.21109375 36.14890625 -7.8046875 35.1953125 C-6.70117144 32.18474928 -6.37334399 29.17342389 -6 26 C-5.34 26 -4.68 26 -4 26 C-3.87625 24.865625 -3.7525 23.73125 -3.625 22.5625 C-3.24845319 19.50709157 -2.70672645 16.55817628 -2 13.5625 C-0.94832574 9.05756699 -0.43841707 4.60337928 0 0 Z " fill="#9650C5" transform="translate(345,607)"/>
<path d="M0 0 C0.99 0.33 1.98 0.66 3 1 C2.6596875 1.41507812 2.319375 1.83015625 1.96875 2.2578125 C-13.36263317 21.74824111 -21.34739908 46.53398934 -24 71 C-24.66 70.67 -25.32 70.34 -26 70 C-26.22422932 64.37931843 -25.41668027 59.45986838 -24.125 54 C-23.95097656 53.23171875 -23.77695313 52.4634375 -23.59765625 51.671875 C-22.54058789 47.06775503 -21.33742685 42.53038283 -20 38 C-19.34 38 -18.68 38 -18 38 C-18.04511719 37.28199219 -18.09023437 36.56398438 -18.13671875 35.82421875 C-17.98198457 32.62785265 -17.19275288 30.68767292 -15.8125 27.8125 C-15.35875 26.85859375 -14.905 25.9046875 -14.4375 24.921875 C-13.963125 23.95765625 -13.48875 22.9934375 -13 22 C-12.54625 21.07703125 -12.0925 20.1540625 -11.625 19.203125 C-10.42849222 16.7958653 -9.21755564 14.39666216 -8 12 C-7.33242212 10.66712266 -6.66545095 9.3339405 -6 8 C-5.34 8 -4.68 8 -4 8 C-3.71125 7.236875 -3.4225 6.47375 -3.125 5.6875 C-2 3 -2 3 0 0 Z " fill="#6370C0" transform="translate(209,479)"/>
<path d="M0 0 C-0.82242188 0.54527344 -1.64484375 1.09054687 -2.4921875 1.65234375 C-23.03199864 15.44861611 -37.17420349 32.25923611 -47 55 C-47.7109375 53.46875 -47.7109375 53.46875 -48 51 C-46.98395747 48.36185448 -45.92208221 45.99404911 -44.625 43.5 C-44.2643042 42.79311035 -43.9036084 42.0862207 -43.53198242 41.35791016 C-40.01957234 34.67988301 -35.77282106 28.84761664 -31 23 C-30.46890625 22.31679688 -29.9378125 21.63359375 -29.390625 20.9296875 C-28.31756403 19.57258098 -27.1690618 18.27534014 -26 17 C-25.34 17 -24.68 17 -24 17 C-24 16.34 -24 15.68 -24 15 C-23.34 15 -22.68 15 -22 15 C-22 14.34 -22 13.68 -22 13 C-20.49096123 11.64626036 -18.91587302 10.36556599 -17.3125 9.125 C-16.00732422 8.10792969 -16.00732422 8.10792969 -14.67578125 7.0703125 C-13.79277344 6.38710938 -12.90976563 5.70390625 -12 5 C-11.10925781 4.28199219 -10.21851563 3.56398438 -9.30078125 2.82421875 C-4.04020101 -1.34673367 -4.04020101 -1.34673367 0 0 Z " fill="#5274C6" transform="translate(207,462)"/>
<path d="M0 0 C0.66 0 1.32 0 2 0 C3.61158821 3.51681325 4.37893087 6.84903679 4.93579102 10.66967773 C7.08177208 25.30470169 12.32652526 37.55066338 19.83618164 50.23803711 C20.26020264 50.96128174 20.68422363 51.68452637 21.12109375 52.4296875 C21.5070874 53.07147949 21.89308105 53.71327148 22.29077148 54.37451172 C22.52481689 54.91092285 22.7588623 55.44733398 23 56 C22.67 56.66 22.34 57.32 22 58 C9.42986376 40.59519597 3.3033705 21.00827728 0 0 Z " fill="#9554BD" transform="translate(139,609)"/>
<path d="M0 0 C0.33 0 0.66 0 1 0 C1.33 4.29 1.66 8.58 2 13 C1.01 13.495 1.01 13.495 0 14 C-0.63993922 16.49545677 -1.13900682 18.90296174 -1.5625 21.4375 C-1.75646362 22.55886353 -1.75646362 22.55886353 -1.9543457 23.70288086 C-3.31583251 32.09392527 -3.71219177 40.51461939 -4 49 C-4.99 49 -5.98 49 -7 49 C-7.43480791 39.97079747 -5.98634846 31.41700673 -4.49145508 22.54736328 C-4.05905924 19.97956694 -3.6389662 17.40997635 -3.22070312 14.83984375 C-2.95122734 13.20561251 -2.6810701 11.57149346 -2.41015625 9.9375 C-2.22103416 8.78604492 -2.22103416 8.78604492 -2.02809143 7.61132812 C-1.11661473 2.23322946 -1.11661473 2.23322946 0 0 Z " fill="#4F6FB8" transform="translate(260,300)"/>
<path d="M0 0 C0.66 0.33 1.32 0.66 2 1 C-8.55097509 13.37494684 -22.51842104 26.47091476 -39 30 C-39 26 -39 26 -37.46875 24.296875 C-36.8190625 23.78640625 -36.169375 23.2759375 -35.5 22.75 C-34.8503125 22.22921875 -34.200625 21.7084375 -33.53125 21.171875 C-32.77328125 20.59179688 -32.77328125 20.59179688 -32 20 C-31.34 20.33 -30.68 20.66 -30 21 C-32.31 22.98 -34.62 24.96 -37 27 C-22.41871265 20.29174502 -11.03068358 11.61696007 0 0 Z " fill="#AD39C6" transform="translate(340,669)"/>
<path d="M0 0 C-2.07901329 3.84282134 -4.29846215 6.37314338 -7.625 9.1875 C-16.32850514 16.85215882 -23.0967272 25.01568653 -29 35 C-29.33 34.34 -29.66 33.68 -30 33 C-24.45957763 20.94552454 -14.5120331 9.96366144 -4 2 C-4.55429688 2.28875 -5.10859375 2.5775 -5.6796875 2.875 C-6.40414062 3.24625 -7.12859375 3.6175 -7.875 4 C-8.59429687 4.37125 -9.31359375 4.7425 -10.0546875 5.125 C-12 6 -12 6 -14 6 C-14 5.34 -14 4.68 -14 4 C-9.22642128 1.28608722 -5.65611463 -0.56561146 0 0 Z " fill="#4977C9" transform="translate(221,455)"/>
<path d="M0 0 C0.33 0 0.66 0 1 0 C1.63220465 2.70681798 2.25574569 5.4152134 2.875 8.125 C3.13603516 9.23681641 3.13603516 9.23681641 3.40234375 10.37109375 C6.59946681 24.46211762 7.17323752 37.51497666 6.625 51.875 C6.5665904 53.64189048 6.50929164 55.40881805 6.453125 57.17578125 C6.31485293 61.45105534 6.16167379 65.72554955 6 70 C5.67 70 5.34 70 5 70 C4.98541748 68.95360352 4.97083496 67.90720703 4.95581055 66.82910156 C4.80845217 38.00596495 4.80845217 38.00596495 0.42138672 9.60400391 C0.22947754 8.80269043 0.03756836 8.00137695 -0.16015625 7.17578125 C-0.34328369 6.44915283 -0.52641113 5.72252441 -0.71508789 4.97387695 C-1 3 -1 3 0 0 Z " fill="#837CCB" transform="translate(332,520)"/>
<path d="M0 0 C1.70177607 3.40355213 -0.12903128 6.98518636 -1.08984375 10.5078125 C-1.31321915 11.34843231 -1.53659454 12.18905212 -1.76673889 13.05514526 C-2.48366514 15.7469276 -3.21045971 18.43593373 -3.9375 21.125 C-4.42447903 22.94644068 -4.91081554 24.76805328 -5.39648438 26.58984375 C-6.5902021 31.06192682 -7.7927784 35.53154421 -9 40 C-10.32116319 35.71477943 -9.29873766 32.39663207 -8.125 28.1875 C-6.74674887 23.12599155 -5.6403812 18.21161292 -5 13 C-5.66 14.32 -6.32 15.64 -7 17 C-7.66 17 -8.32 17 -9 17 C-9.2475 17.928125 -9.495 18.85625 -9.75 19.8125 C-11.06454245 23.16458325 -11.97963384 24.1877803 -15 26 C-13.68548454 22.50136058 -12.1445897 19.37030652 -10.21484375 16.171875 C-9.68439453 15.29015625 -9.15394531 14.4084375 -8.60742188 13.5 C-8.05634766 12.5925 -7.50527344 11.685 -6.9375 10.75 C-6.38255859 9.82703125 -5.82761719 8.9040625 -5.25585938 7.953125 C-1.1474084 1.1474084 -1.1474084 1.1474084 0 0 Z " fill="#4B66AC" transform="translate(312,307)"/>
<path d="M0 0 C0.33 0.99 0.66 1.98 1 3 C-0.48342521 5.50606704 -2.00018722 7.82526211 -3.6875 10.1875 C-8.58635629 17.13048337 -12.40891446 24.048936 -15.27734375 32.05859375 C-15.97983576 33.94582904 -16.80126743 35.78744273 -17.625 37.625 C-18.92234136 40.80938333 -19.58539434 43.60023359 -20 47 C-20.33 47 -20.66 47 -21 47 C-21.70755627 30.45406879 -10.17079685 12.51790382 0 0 Z " fill="#6372C2" transform="translate(167,479)"/>
<path d="M0 0 C2 2 2 2 2.265625 4.05859375 C2.26046875 4.84363281 2.2553125 5.62867188 2.25 6.4375 C2.25515625 7.21996094 2.2603125 8.00242187 2.265625 8.80859375 C2 11 2 11 0 14 C-0.67180928 15.92056468 -0.67180928 15.92056468 -1.18359375 18.01953125 C-1.38919922 18.79490234 -1.59480469 19.57027344 -1.80664062 20.36914062 C-2.22413286 21.98611519 -2.64081191 23.60329996 -3.05664062 25.22070312 C-4.62212317 31.11686634 -6.20281497 36.88812711 -11 41 C-10.34173751 37.35786216 -9.39306368 33.93942336 -8.22265625 30.4296875 C-7.87396484 29.3675 -7.52527344 28.3053125 -7.16601562 27.2109375 C-6.43771126 25.00926694 -5.70600944 22.80871697 -4.97070312 20.609375 C-2.73993098 13.78970326 -1.07048394 7.09694489 0 0 Z " fill="#9458C3" transform="translate(334,611)"/>
<path d="M0 0 C1.87959667 2.81939501 2.85543572 5.35168749 3.90234375 8.546875 C8.11921704 21.40264006 14.113958 32.97746402 22 44 C18.15625 42.328125 18.15625 42.328125 16.75 39.375 C16.5025 38.59125 16.255 37.8075 16 37 C15.34 37 14.68 37 14 37 C-0.54904459 11.25541401 -0.54904459 11.25541401 0 0 Z " fill="#9E50BC" transform="translate(189,630)"/>
<path d="M0 0 C1.08997828 3.26261954 0.89270529 4.93777464 -0.3125 8.125 C-2.17581014 13.81656553 -2.73757809 19.46815872 -3.26489258 25.40283203 C-3.73466268 30.44499434 -4.66437601 35.11194871 -6 40 C-6.33 40 -6.66 40 -7 40 C-7.75645915 27.02812645 -5.17747454 13.28076853 -1 1 C-0.67 0.67 -0.34 0.34 0 0 Z " fill="#696DC9" transform="translate(180,515)"/>
<path d="M0 0 C0.33 0 0.66 0 1 0 C1.02465622 4.25414623 1.04283899 8.50825498 1.05493164 12.76245117 C1.05997101 14.21070073 1.06680253 15.65894517 1.07543945 17.10717773 C1.08752247 19.18474588 1.09323211 21.26224697 1.09765625 23.33984375 C1.10289307 24.59144287 1.10812988 25.84304199 1.11352539 27.13256836 C1 30 1 30 0 31 C-0.23427778 33.01594582 -0.41336124 35.038474 -0.5625 37.0625 C-0.68818359 38.71958984 -0.68818359 38.71958984 -0.81640625 40.41015625 C-0.87699219 41.26480469 -0.93757812 42.11945312 -1 43 C-1.33 43 -1.66 43 -2 43 C-2.27252314 28.52063616 -1.64769982 14.38795019 0 0 Z " fill="#541F7A" transform="translate(606,550)"/>
<path d="M0 0 C3.58597048 4.66337571 6.63477745 9.64064393 9.75 14.625 C10.36488281 15.59179688 10.97976562 16.55859375 11.61328125 17.5546875 C12.18949219 18.47765625 12.76570312 19.400625 13.359375 20.3515625 C13.89014648 21.19541504 14.42091797 22.03926758 14.96777344 22.90869141 C15.3084082 23.59882324 15.64904297 24.28895508 16 25 C15.67 25.66 15.34 26.32 15 27 C14.51789063 26.21753906 14.03578125 25.43507813 13.5390625 24.62890625 C12.90742188 23.61699219 12.27578125 22.60507812 11.625 21.5625 C10.99851563 20.55316406 10.37203125 19.54382813 9.7265625 18.50390625 C8.24183698 15.91988937 8.24183698 15.91988937 6 15 C6 17.64 6 20.28 6 23 C3.81124001 19.22389606 2.89606304 15.13898531 1.875 10.9375 C1.69324219 10.21755859 1.51148438 9.49761719 1.32421875 8.75585938 C0.58563412 5.76542463 0 3.09200343 0 0 Z " fill="#566DAC" transform="translate(207,305)"/>
<path d="M0 0 C2 2 2 2 2.125 5.125 C2.08375 6.07375 2.0425 7.0225 2 8 C2.98299072 7.83701416 3.96598145 7.67402832 4.97875977 7.50610352 C9.11354155 6.91801368 13.1697905 6.87283832 17.33984375 6.90234375 C18.10680069 6.9037587 18.87375763 6.90517365 19.66395569 6.90663147 C22.0885119 6.91218234 24.51297219 6.92472537 26.9375 6.9375 C28.59179553 6.94252136 30.24609253 6.94708315 31.90039062 6.95117188 C35.93363012 6.96213562 39.96679886 6.97936576 44 7 C44 7.33 44 7.66 44 8 C42.80008423 8.03758423 42.80008423 8.03758423 41.57592773 8.07592773 C20.77065592 8.69652548 20.77065592 8.69652548 0 10 C0 6.7 0 3.4 0 0 Z " fill="#416EB9" transform="translate(233,413)"/>
<path d="M0 0 C4.43741474 3.15373405 7.09426293 6.62590343 10 11.125 C10.43425293 11.78935059 10.86850586 12.45370117 11.31591797 13.13818359 C20.35979823 27.16383355 20.35979823 27.16383355 20 34 C18.0549 31.08235 17.54723683 29.37462715 17 26 C16.34 26 15.68 26 15 26 C14.40251953 24.47826172 14.40251953 24.47826172 13.79296875 22.92578125 C12.09828018 18.96951533 9.84482549 15.64874871 7.3125 12.1875 C3 6.25697674 3 6.25697674 3 4 C2.34 4 1.68 4 1 4 C0.67 2.68 0.34 1.36 0 0 Z " fill="#5D73C1" transform="translate(350,475)"/>
<path d="M0 0 C-0.33 5.94 -0.66 11.88 -1 18 C-2.83356588 14.33286823 -3.2585055 13.25243203 -3.1875 9.4375 C-3.17783203 8.29087891 -3.17783203 8.29087891 -3.16796875 7.12109375 C-3 5 -3 5 -2 2 C-8.435 2.495 -8.435 2.495 -15 3 C-15 3.99 -15 4.98 -15 6 C-15.66 6 -16.32 6 -17 6 C-16.67 4.35 -16.34 2.7 -16 1 C-10.60902318 -0.13494249 -5.48452296 -0.07411518 0 0 Z " fill="#61347F" transform="translate(472,493)"/>
<path d="M0 0 C2.0987682 3.42309905 2.0987682 3.42309905 1.66381836 5.96362305 C1.39190674 6.63949463 1.11999512 7.31536621 0.83984375 8.01171875 C0.54279541 8.76598145 0.24574707 9.52024414 -0.06030273 10.29736328 C-0.39102783 11.0861084 -0.72175293 11.87485352 -1.0625 12.6875 C-1.54988647 13.8938208 -1.54988647 13.8938208 -2.04711914 15.12451172 C-4.32529756 20.66099552 -6.87454056 25.88561183 -10 31 C-10.66 30.67 -11.32 30.34 -12 30 C-11.34 28.02 -10.68 26.04 -10 24 C-9.34 24 -8.68 24 -8 24 C-8 22.68 -8 21.36 -8 20 C-7.34 20 -6.68 20 -6 20 C-6 18.68 -6 17.36 -6 16 C-5.34 16 -4.68 16 -4 16 C-4.061875 15.319375 -4.12375 14.63875 -4.1875 13.9375 C-3.94704912 10.17043618 -2.55415948 7.41915085 -1 4 C-0.62691369 2.67723944 -0.26953585 1.34767923 0 0 Z " fill="#9951C1" transform="translate(373,629)"/>
<path d="M0 0 C1 3 1 3 0.41430664 4.75830078 C0.08293701 5.39751465 -0.24843262 6.03672852 -0.58984375 6.6953125 C-1.14297241 7.7637439 -1.14297241 7.7637439 -1.70727539 8.85375977 C-2.11324951 9.60326904 -2.51922363 10.35277832 -2.9375 11.125 C-3.34411865 11.88675537 -3.7507373 12.64851074 -4.16967773 13.43334961 C-7.40965859 19.3200577 -11.12694013 24.3393896 -16 29 C-16.66 28.67 -17.32 28.34 -18 28 C-17.53851563 27.48695313 -17.07703125 26.97390625 -16.6015625 26.4453125 C-9.7324008 18.38151398 -4.93847698 9.32518586 0 0 Z " fill="#A048C5" transform="translate(359,640)"/>
<path d="M0 0 C5.16587583 5.87031344 5.57319814 13.98365928 6.625 21.4375 C6.82609375 22.82098633 6.82609375 22.82098633 7.03125 24.23242188 C7.35844081 26.4877014 7.68124951 28.74351482 8 31 C7.34 31.33 6.68 31.66 6 32 C5.78851318 30.9644397 5.78851318 30.9644397 5.57275391 29.90795898 C4.92629079 26.7505611 4.27568046 23.59403134 3.625 20.4375 C3.40328125 19.35146484 3.1815625 18.26542969 2.953125 17.14648438 C1.82582762 11.69235438 0.63499779 6.32520308 -1 1 C-0.67 0.67 -0.34 0.34 0 0 Z " fill="#676AC8" transform="translate(364,520)"/>
<path d="M0 0 C11.21538747 -0.20127315 21.96308188 -0.25572049 33 2 C32.67 2.66 32.34 3.32 32 4 C25.96921855 4.2309661 20.55598939 3.8328336 14.671875 2.51171875 C9.82896215 1.58420181 4.91465205 1.32088793 0 1 C0 0.67 0 0.34 0 0 Z " fill="#4479C7" transform="translate(255,436)"/>
<path d="M0 0 C2.46060345 3.02843502 4.87203778 6.09389512 7.25 9.1875 C7.77078125 9.86167969 8.2915625 10.53585937 8.828125 11.23046875 C10 13 10 13 10 15 C10.66 15 11.32 15 12 15 C13.4375 16.49609375 13.4375 16.49609375 15 18.4375 C17.14525044 21.15188238 17.14525044 21.15188238 20 23 C20 23.66 20 24.32 20 25 C11.40286757 21.1769389 4.62671014 11.92447162 0 4 C0 2.68 0 1.36 0 0 Z " fill="#AD41C8" transform="translate(194,668)"/>
<path d="M0 0 C0.66 0.33 1.32 0.66 2 1 C1.4225 1.70125 0.845 2.4025 0.25 3.125 C-2.04943731 5.9836102 -2.04943731 5.9836102 -4.0625 9.125 C-6 12 -6 12 -7.5625 13.4375 C-9.84954134 15.9234145 -10.76137711 18.87395174 -12 22 C-12.66 22 -13.32 22 -14 22 C-12.66667669 17.39522363 -10.81071241 13.83769266 -8.125 9.875 C-7.44695312 8.86179687 -6.76890625 7.84859375 -6.0703125 6.8046875 C-4.205049 4.27778336 -2.28688828 2.14331682 0 0 Z " fill="#5A267C" transform="translate(447,563)"/>
<path d="M0 0 C0.66 0.66 1.32 1.32 2 2 C-3.07054888 10.04103391 -8.42275171 17.11824947 -15 24 C-15 20.53075268 -14.62508179 20.24143444 -12.375 17.8125 C-7.45043968 12.29419836 -3.05466574 6.78814608 0 0 Z " fill="#A841C5" transform="translate(327,664)"/>
<path d="M0 0 C2.43596099 3.65394148 2.96043169 7.13436511 3.6875 11.375 C3.82994141 12.13039063 3.97238281 12.88578125 4.11914062 13.6640625 C4.83292425 17.72659218 5.199352 20.95923016 4 25 C1.93147447 21.49741264 1.42179085 18.19295993 0.875 14.1875 C0.70742187 13.00542969 0.53984375 11.82335937 0.3671875 10.60546875 C0.00427967 7.04202276 -0.06415721 3.57905598 0 0 Z " fill="#8C5CC7" transform="translate(172,598)"/>
<path d="M0 0 C-3 2 -3 2 -6.0625 2.375 C-7.031875 2.58125 -8.00125 2.7875 -9 3 C-9.69840249 4.31698754 -10.36030213 5.65351983 -11 7 C-12.7265625 8.921875 -12.7265625 8.921875 -14.625 10.75 C-15.57246094 11.67039062 -15.57246094 11.67039062 -16.5390625 12.609375 C-17.02117188 13.06828125 -17.50328125 13.5271875 -18 14 C-18.33 13.34 -18.66 12.68 -19 12 C-15.16794799 5.00233981 -8.50952649 -1.30915792 0 0 Z " fill="#58237C" transform="translate(596,525)"/>
<path d="M0 0 C1.26245617 3.78736852 0.53185982 4.55823293 -1.1875 8.0625 C-3.68661032 13.2980663 -5.90068923 18.59339517 -8 24 C-9.07822271 20.7761276 -8.95991481 19.108421 -7.63671875 15.99609375 C-7.32669922 15.25552734 -7.01667969 14.51496094 -6.69726562 13.75195312 C-6.19743164 12.60629883 -6.19743164 12.60629883 -5.6875 11.4375 C-5.36587891 10.66986328 -5.04425781 9.90222656 -4.71289062 9.11132812 C-3.32135422 5.83393129 -1.98528316 2.97792474 0 0 Z " fill="#5973C7" transform="translate(190,490)"/>
<path d="M0 0 C0.33 0 0.66 0 1 0 C1.33 4.29 1.66 8.58 2 13 C1.01 13.495 1.01 13.495 0 14 C-0.65555119 16.52733235 -0.65555119 16.52733235 -1 19 C-1.33 19 -1.66 19 -2 19 C-2.22262303 12.2718373 -1.95021536 6.46008837 0 0 Z " fill="#4B62A5" transform="translate(260,300)"/>
<path d="M0 0 C0.66 0.33 1.32 0.66 2 1 C-1.465 3.97 -1.465 3.97 -5 7 C-1.37 5.35 2.26 3.7 6 2 C6 2.66 6 3.32 6 4 C4.58671871 4.81837442 3.16921654 5.62946219 1.75 6.4375 C0.56664062 7.11619141 0.56664062 7.11619141 -0.640625 7.80859375 C-2.78833468 8.89311602 -4.65205061 9.53148716 -7 10 C-7 6 -7 6 -5.46875 4.296875 C-4.8190625 3.78640625 -4.169375 3.2759375 -3.5 2.75 C-2.8503125 2.22921875 -2.200625 1.7084375 -1.53125 1.171875 C-0.77328125 0.59179688 -0.77328125 0.59179688 0 0 Z " fill="#B53BCF" transform="translate(308,689)"/>
<path d="M0 0 C0 4.03449472 -1.53380954 5.23128687 -4.140625 8.1484375 C-12.02531646 16 -12.02531646 16 -16 16 C-14.81865643 12.45596928 -13.77415776 11.84549183 -10.8125 9.6875 C-6.84799668 6.71095597 -3.4137001 3.58876164 0 0 Z " fill="#A43EBE" transform="translate(309,673)"/>
<path d="M0 0 C0.66 0 1.32 0 2 0 C0.63648771 3.76653395 -1.07903778 6.84648627 -3.375 10.125 C-4.25285156 11.39730469 -4.25285156 11.39730469 -5.1484375 12.6953125 C-6.93284319 14.91640819 -8.64820485 16.41486935 -11 18 C-9.87548273 15.0280615 -8.77706209 12.66559313 -7 10 C-6.34 10 -5.68 10 -5 10 C-4.731875 9.278125 -4.46375 8.55625 -4.1875 7.8125 C-3.00098638 5.00233617 -1.72514361 2.51583443 0 0 Z " fill="#9D45BC" transform="translate(360,659)"/>
<path d="M0 0 C3.79957198 1.72707817 7.14984185 4.06130721 10.5625 6.4375 C11.13935547 6.83259766 11.71621094 7.22769531 12.31054688 7.63476562 C15.10307592 9.57053259 17.71617781 11.47235337 20 14 C15.34199054 12.66914016 11.92488846 10.82591969 8 8 C7.2884375 7.49726562 6.576875 6.99453125 5.84375 6.4765625 C1.55178476 3.378489 1.55178476 3.378489 0 2 C0 1.34 0 0.68 0 0 Z " fill="#AD41C7" transform="translate(187,679)"/>
<path d="M0 0 C0 3.66520045 -1.21832257 4.52844496 -3.5546875 7.171875 C-6.17724613 10.48905727 -8.04790263 14.2619412 -10 18 C-10.66 18 -11.32 18 -12 18 C-10.32537838 10.74330633 -5.26413461 5.07095536 0 0 Z " fill="#5A2A79" transform="translate(447,469)"/>
<path d="M0 0 C1.57159226 3.14318453 0.04018399 5.92933389 -0.9375 9.125 C-1.13279297 9.78371094 -1.32808594 10.44242187 -1.52929688 11.12109375 C-2.01304986 12.74933552 -2.50569075 14.37493182 -3 16 C-3.92069386 12.51184278 -4.36297417 9.62974171 -4 6 C-2 2.625 -2 2.625 0 0 Z " fill="#4E629E" transform="translate(312,307)"/>
<path d="M0 0 C0.66 0.33 1.32 0.66 2 1 C-0.64 3.97 -3.28 6.94 -6 10 C-6.99 9.67 -7.98 9.34 -9 9 C-6.03 6.03 -3.06 3.06 0 0 Z " fill="#AE49CA" transform="translate(340,669)"/>
<path d="M0 0 C9.96437732 7.68680536 9.96437732 7.68680536 11 13 C2.30169972 5.66997167 2.30169972 5.66997167 0 3 C0 2.01 0 1.02 0 0 Z " fill="#A23DBB" transform="translate(171,677)"/>
<path d="M0 0 C2.00993705 3.01490557 2.72623341 5.2149927 3.625 8.6875 C3.88539063 9.68136719 4.14578125 10.67523437 4.4140625 11.69921875 C4.60742188 12.45847656 4.80078125 13.21773437 5 14 C4.01 14.495 4.01 14.495 3 15 C1.094753 9.89665983 -0.42589023 5.53657294 0 0 Z " fill="#9C61C1" transform="translate(189,630)"/>
<path d="M0 0 C0.33 0 0.66 0 1 0 C2.51708428 12.66970387 2.51708428 12.66970387 0 18 C-0.66 17.67 -1.32 17.34 -2 17 C-1.34 11.39 -0.68 5.78 0 0 Z " fill="#6F428F" transform="translate(603,584)"/>
<path d="M0 0 C0 0.66 0 1.32 0 2 C-9.41002278 5.44419134 -9.41002278 5.44419134 -14 5 C-11.56585763 3.37723842 -9.68680554 2.38255208 -7 1.375 C-6.319375 1.11460937 -5.63875 0.85421875 -4.9375 0.5859375 C-3 0 -3 0 0 0 Z " fill="#517FC6" transform="translate(228,440)"/>
<path d="M0 0 C0 0.33 0 0.66 0 1 C-1.546875 1.3403125 -1.546875 1.3403125 -3.125 1.6875 C-7.34408258 2.86471856 -9.81536784 5.04838971 -13 8 C-10.64175733 0.72875178 -7.4631798 -0.43056807 0 0 Z " fill="#EBDBF2" transform="translate(667,542)"/>
<path d="M0 0 C1.45947705 0.06006078 2.91779272 0.1488689 4.375 0.25 C5.59316406 0.31960938 5.59316406 0.31960938 6.8359375 0.390625 C9 1 9 1 10.2890625 3.046875 C10.64097656 4.01367188 10.64097656 4.01367188 11 5 C10.484375 4.690625 9.96875 4.38125 9.4375 4.0625 C6.33334577 2.70940713 3.34884993 2.38640576 0 2 C0 1.34 0 0.68 0 0 Z " fill="#623482" transform="translate(528,524)"/>
<path d="M0 0 C4.79280002 0.80904103 6.13520113 3.25984591 9 7 C6 7 6 7 4.39453125 5.46875 C3.87246094 4.8190625 3.35039062 4.169375 2.8125 3.5 C2.28269531 2.8503125 1.75289062 2.200625 1.20703125 1.53125 C0.80871094 1.0259375 0.41039062 0.520625 0 0 Z " fill="#AD51C8" transform="translate(209,674)"/>
<path d="M0 0 C0.66 0 1.32 0 2 0 C2.66 2.31 3.32 4.62 4 7 C3.01 7.33 2.02 7.66 1 8 C0 7 0 7 -0.0625 3.4375 C-0.041875 2.303125 -0.02125 1.16875 0 0 Z " fill="#674380" transform="translate(819,579)"/>
<path d="M0 0 C0.66 0.33 1.32 0.66 2 1 C2 1.66 2 2.32 2 3 C-3.2734375 6.22265625 -3.2734375 6.22265625 -5 7 C-5.66 6.67 -6.32 6.34 -7 6 C-4.69 4.02 -2.38 2.04 0 0 Z " fill="#F39AFB" transform="translate(309,690)"/>
<path d="M0 0 C1.27514492 3.82543475 0.52740413 5.33423008 -1 9 C-2.625 10.875 -2.625 10.875 -4 12 C-3.33501617 7.61110675 -1.81242323 4.0188515 0 0 Z " fill="#974DBD" transform="translate(327,640)"/>
<path d="M0 0 C0.33 1.32 0.66 2.64 1 4 C-0.9375 6.25 -0.9375 6.25 -3 8 C-3.66 7.67 -4.32 7.34 -5 7 C-3.35 4.69 -1.7 2.38 0 0 Z " fill="#5A2582" transform="translate(692,575)"/>
<path d="M0 0 C0.66 0 1.32 0 2 0 C2.625 3.375 2.625 3.375 3 7 C2.34 7.66 1.68 8.32 1 9 C0.67 6.03 0.34 3.06 0 0 Z " fill="#653186" transform="translate(561,531)"/>
</svg>
